<svg version="1.1" xmlns="http://www.w3.org/2000/svg" xmlns:xlink="http://www.w3.org/1999/xlink" x="0px" y="0px" width="123.625px" height="123.607px" viewBox="16 15.563 123.625 123.607" enable-background="new 16 15.563 123.625 123.607" xml:space="preserve">
<g>
	<polyline fill="none" stroke="#C28562" stroke-linecap="round" stroke-linejoin="round" stroke-miterlimit="10" points="
		59.158,138.668 59.158,16.395 138.902,16.395 138.902,138.668 	"></polyline>
	<polyline fill="none" stroke="#C28562" stroke-linecap="round" stroke-linejoin="round" stroke-miterlimit="10" points="
		16.629,138.668 16.629,48.291 59.158,48.291 59.158,138.668 	"></polyline>
	
		<rect x="32.578" y="64.24" fill="none" stroke="#C28562" stroke-linecap="round" stroke-linejoin="round" stroke-miterlimit="10" width="26.581" height="15.947"></rect>
	
		<rect x="32.578" y="96.139" fill="none" stroke="#C28562" stroke-linecap="round" stroke-linejoin="round" stroke-miterlimit="10" width="26.581" height="15.949"></rect>
	<path fill="none" stroke="#C28562" stroke-linecap="round" stroke-linejoin="round" stroke-miterlimit="10" d="M112.32,138.668
		H85.74v-15.947c0-5.873,4.761-10.633,10.632-10.633h5.317c5.871,0,10.631,4.76,10.631,10.633V138.668z"></path>
	
		<line fill="none" stroke="#C28562" stroke-linecap="round" stroke-linejoin="round" stroke-miterlimit="10" x1="75.107" y1="32.342" x2="80.424" y2="32.342"></line>
	
		<line fill="none" stroke="#C28562" stroke-linecap="round" stroke-linejoin="round" stroke-miterlimit="10" x1="96.372" y1="32.342" x2="101.689" y2="32.342"></line>
	
		<line fill="none" stroke="#C28562" stroke-linecap="round" stroke-linejoin="round" stroke-miterlimit="10" x1="117.637" y1="32.342" x2="122.953" y2="32.342"></line>
	
		<line fill="none" stroke="#C28562" stroke-linecap="round" stroke-linejoin="round" stroke-miterlimit="10" x1="75.107" y1="48.291" x2="80.424" y2="48.291"></line>
	
		<line fill="none" stroke="#C28562" stroke-linecap="round" stroke-linejoin="round" stroke-miterlimit="10" x1="96.372" y1="48.291" x2="101.689" y2="48.291"></line>
	
		<line fill="none" stroke="#C28562" stroke-linecap="round" stroke-linejoin="round" stroke-miterlimit="10" x1="117.637" y1="48.291" x2="122.953" y2="48.291"></line>
	
		<line fill="none" stroke="#C28562" stroke-linecap="round" stroke-linejoin="round" stroke-miterlimit="10" x1="75.107" y1="64.24" x2="80.424" y2="64.24"></line>
	
		<line fill="none" stroke="#C28562" stroke-linecap="round" stroke-linejoin="round" stroke-miterlimit="10" x1="96.372" y1="64.24" x2="101.689" y2="64.24"></line>
	
		<line fill="none" stroke="#C28562" stroke-linecap="round" stroke-linejoin="round" stroke-miterlimit="10" x1="117.637" y1="64.24" x2="122.953" y2="64.24"></line>
	
		<line fill="none" stroke="#C28562" stroke-linecap="round" stroke-linejoin="round" stroke-miterlimit="10" x1="75.107" y1="80.188" x2="80.424" y2="80.188"></line>
	
		<line fill="none" stroke="#C28562" stroke-linecap="round" stroke-linejoin="round" stroke-miterlimit="10" x1="96.372" y1="80.188" x2="101.689" y2="80.188"></line>
	
		<line fill="none" stroke="#C28562" stroke-linecap="round" stroke-linejoin="round" stroke-miterlimit="10" x1="117.637" y1="80.188" x2="122.953" y2="80.188"></line>
	
		<line fill="none" stroke="#C28562" stroke-linecap="round" stroke-linejoin="round" stroke-miterlimit="10" x1="75.107" y1="96.139" x2="80.424" y2="96.139"></line>
	
		<line fill="none" stroke="#C28562" stroke-linecap="round" stroke-linejoin="round" stroke-miterlimit="10" x1="96.372" y1="96.139" x2="101.689" y2="96.139"></line>
	
		<line fill="none" stroke="#C28562" stroke-linecap="round" stroke-linejoin="round" stroke-miterlimit="10" x1="117.637" y1="96.139" x2="122.953" y2="96.139"></line>
</g>
</svg>